<mxfile host="app.diagrams.net" modified="2023-12-05T08:07:36.425Z" agent="Mozilla/5.0 (X11; Linux x86_64) AppleWebKit/537.36 (KHTML, like Gecko) Chrome/119.0.0.0 Safari/537.36" etag="0S9BV0R4fmRqBtYWBYHT" version="22.1.5" type="github">
  <diagram name="第 1 页" id="k2Y3failRxMbn6D8Xq0v">
    <mxGraphModel dx="1434" dy="821" grid="1" gridSize="10" guides="1" tooltips="1" connect="1" arrows="1" fold="1" page="1" pageScale="1" pageWidth="827" pageHeight="1169" math="0" shadow="0">
      <root>
        <mxCell id="0" />
        <mxCell id="1" parent="0" />
        <mxCell id="bdNKhNyuXHeSQcVlFyQ_-1" value="" style="rounded=0;whiteSpace=wrap;html=1;" vertex="1" parent="1">
          <mxGeometry x="160" y="250" width="120" height="60" as="geometry" />
        </mxCell>
        <mxCell id="bdNKhNyuXHeSQcVlFyQ_-2" value="gorm" style="ellipse;shape=cloud;whiteSpace=wrap;html=1;fillColor=#008a00;strokeColor=#005700;fontColor=#000000;fontSize=21;" vertex="1" parent="1">
          <mxGeometry x="120" y="50" width="120" height="80" as="geometry" />
        </mxCell>
        <mxCell id="bdNKhNyuXHeSQcVlFyQ_-5" value="AddGroup" style="rounded=0;whiteSpace=wrap;html=1;fontSize=14;fillColor=#fa6800;fontColor=#000000;strokeColor=#C73500;align=left;" vertex="1" parent="1">
          <mxGeometry x="370" y="180" width="100" height="30" as="geometry" />
        </mxCell>
      </root>
    </mxGraphModel>
  </diagram>
</mxfile>
